<svg height="512" viewBox="0 0 60 60" width="512" xmlns="http://www.w3.org/2000/svg"><g id="007---Suit-Jacket" transform="translate(0 -1)"><path id="Shape" d="m1.75 50.38c7.6 1.69 7.17 1.62 7.49 1.62.9287171.00168 1.7363962-.6361794 1.95-1.54l2.81-11.46c0 11-.47 15.27-.75 16.85-.1857784 1.0554386.4933645 2.0697429 1.54 2.3 13.94 3.03 13.05 2.85 13.21 2.85.4706972.0137136.8871845-.3028167 1-.76l1-4.12 1 4.12c.1128155.4571833.5293028.7737136 1 .76.16 0-.78.19 13.21-2.81 1.0466355-.2302571 1.7257784-1.2445614 1.54-2.3-.28-1.58-.75-5.89-.75-16.89 0-.13-.2-1.42 2.8 11.43.1031009.5302524.4163087.9962512.8683589 1.2919673.4520501.2957162 1.0044967.3959996 1.5316411.2780327l7-1.57c.5349395-.1048347 1.0039095-.423478 1.2983984-.882201.2944889-.4587231.3889771-1.0177744.2616016-1.547799l-7-30.84c-.3966599-1.8467621-2.0311246-3.1643407-3.92-3.16l-4.84-2c-4.35-7.84-4.16-7.51-4.24-7.61-3.07-4.3-15.68-4.72-19.47-.09-.14.14.25-.53-4.33 7.72l-4.81 2c-1.84604947.0343403-3.42873415 1.3277615-3.83 3.13l-7.09 30.85c-.23563234 1.0766261.44412145 2.1409775 1.52 2.38zm25.51 8.44-12-2.58c.3-1.65.79-6.08.79-17.24 0-7.15-1.29-15.42-4.86-21.6-.1389159-.2405765-.1714955-.5280978-.0899307-.7936573.0815647-.2655595.269922-.4852216.5199307-.6063427l3.55-1.48c.26.42 0 .24 4.53 2.05l-1.63 4.07c-.1584112.4048138-.0371523.8655977.3 1.14l10.63 8.69v21.41zm2.74-34.58c-1.62-7.74-3.44-11.91-5.3-15.24 3.4119742-1.30965991 7.1880258-1.30965991 10.6 0-1.89 3.39-3.68 7.51-5.3 15.24zm2.74 34.58-1.74-6.94v-21.41l10.63-8.7c.3371523-.2744023.4584112-.7351862.3-1.14l-1.63-4.07c4.26-1.71 4.25-1.6 4.53-2.05l3.55 1.49c.2615163.1113524.4632906.3287315.5548896.5978035.091599.2690721.0643669.5644108-.0748896.8121965-2.4231665 4.5512512-3.93796 9.5303706-4.46 14.66-.8 6.75-.29 20.41.39 24.17zm25.07-10.39-7.06 1.57-4.34-17.87c.4908575-5.0084357 1.998256-9.864096 4.43-14.27zm-15.24-34.94-3.94 1.58c-.2468077.0979351-.4445322.2900079-.5495816.5338726-.1050493.2438646-.1087976.5194964-.0104184.7661274l1.73 4.32-8.4 6.87c1.83-10.35 4.25-15.75 7.51-20.67zm-4.86-8.4c-.34.48-.83 1.22-1.39 2.14-4.0567301-1.62458819-8.5832699-1.62458819-12.64 0-.56-.91-1-1.65-1.38-2.13 3.36-2.82 12.06-2.8 15.41-.01zm-16.62 1.8c3.25 4.91 5.67 10.29 7.51 20.67l-8.4-6.87 1.73-4.32c.0983792-.246631.0946309-.5222628-.0104184-.7661274-.1050494-.2438647-.3027739-.4359375-.5495816-.5338726l-3.95-1.58zm-11.9 11c2.4305736 4.4343747 3.9343548 9.3165603 4.42 14.35l-4.37 17.76-7.06-1.55z"/><circle id="Oval" cx="26" cy="46" r="1"/><circle id="Oval" cx="26" cy="42" r="1"/><circle id="Oval" cx="26" cy="38" r="1"/><path id="Shape" d="m40 42c-.5522847 0-1 .4477153-1 1v8c0 .5522847.4477153 1 1 1s1-.4477153 1-1v-8c0-.5522847-.4477153-1-1-1z"/><path id="Shape" d="m20 42c-.5522847 0-1 .4477153-1 1v8c0 .5522847.4477153 1 1 1s1-.4477153 1-1v-8c0-.5522847-.4477153-1-1-1z"/></g></svg>