<svg height="512" viewBox="0 0 38 60" width="512" xmlns="http://www.w3.org/2000/svg"><g id="023---Jeans"><path id="Shape" d="m21 58c0 1.1045695.8954305 2 2 2h12c1.1045695 0 2-.8954305 2-2v-49.28c.6150891-.35510459.9957131-1.00977788 1-1.72v-4c0-1.1045695-.8954305-2-2-2h-4.28c-.3551046-.61508907-1.0097779-.99571308-1.72-1h-2c-.7102221.00428692-1.3648954.38491093-1.72 1h-14.56c-.3551046-.61508907-1.0097779-.99571308-1.72-1h-2c-.71022212.00428692-1.36489541.38491093-1.72 1h-4.28c-1.1045695 0-2 .8954305-2 2v4c.00428692.71022212.38491093 1.36489541 1 1.72v49.28c0 1.1045695.8954305 2 2 2h12c1.1045695 0 2-.8954305 2-2v-33c-.0015703-.557475.2296067-1.0903071.6377842-1.470007.4081774-.3797.9563088-.571806 1.5122158-.529993 1.0836864.138593 1.8845932 1.078035 1.85 2.17zm15-51h-4v-4h4zm-24-4h3.18c-.1164225.32067401-.1772954.65885676-.18 1 0 2.1-.06 2.32.18 3h-3.18zm10.82 0h3.18v4h-3.18c.1164225-.32067401.1772954-.65885676.18-1 0-2.1.06-2.33-.18-3zm-2.82 0c.5522847 0 1 .44771525 1 1v2c0 .55228475-.4477153 1-1 1h-2c-.5522847 0-1-.44771525-1-1v-2c0-.55228475.4477153-1 1-1zm-18 0h4v4h-4zm1 55v-19h1c.55228475 0 1-.4477153 1-1s-.44771525-1-1-1h-1v-2h2c.55228475 0 1-.4477153 1-1s-.44771525-1-1-1h-2v-13.09c2.88460406-.4875855 4.99703532-2.9844793 5-5.91v-1c0-.5522847-.44771525-1-1-1s-1 .4477153-1 1v1c-.00590719 1.819157-1.23859706 3.4052179-3 3.86v-8.86h3c0 .55228475.44771525 1 1 1s1-.44771525 1-1v-7h2v7c0 .55228475.4477153 1 1 1s1-.44771525 1-1h6v6c0 1.6568542 1.3431458 3 3 3h1c.5522847 0 1-.4477153 1-1s-.4477153-1-1-1h-1c-.5522847 0-1-.4477153-1-1v-6h6c0 .55228475.4477153 1 1 1s1-.44771525 1-1v-7h2v7c0 .55228475.4477153 1 1 1s1-.44771525 1-1h3v8.86c-1.7614029-.4547821-2.9940928-2.040843-3-3.86v-1c0-.5522847-.4477153-1-1-1s-1 .4477153-1 1v1c.0029647 2.9255207 2.1153959 5.4224145 5 5.91v13.09h-2c-.5522847 0-1 .4477153-1 1s.4477153 1 1 1h2v2h-1c-.5522847 0-1 .4477153-1 1s.4477153 1 1 1h1v19h-12v-21h1c.5522847 0 1-.4477153 1-1s-.4477153-1-1-1h-1v-9.83c-.0021258-.7626708-.2056566-1.5112501-.59-2.17h1.59c.5522847 0 1-.4477153 1-1s-.4477153-1-1-1h-10c-.5522847 0-1 .4477153-1 1s.4477153 1 1 1h1.55c-.3560049.6067073-.545717 1.2965692-.55 2v10h-1c-.5522847 0-1 .4477153-1 1s.4477153 1 1 1h1v21z"/><path id="Shape" d="m10 40h-2c-.55228475 0-1 .4477153-1 1s.44771525 1 1 1h2c.5522847 0 1-.4477153 1-1s-.4477153-1-1-1z"/><path id="Shape" d="m28 42h2c.5522847 0 1-.4477153 1-1s-.4477153-1-1-1h-2c-.5522847 0-1 .4477153-1 1s.4477153 1 1 1z"/></g></svg>