<svg height="512" viewBox="0 0 60 60" width="512" xmlns="http://www.w3.org/2000/svg"><path id="Shape" d="m1.42 25c2.99414399 1.8858278 6.46146569 2.8844164 10 2.88 1.2004167.0092222 2.3990366-.0945689 3.58-.31l-1 28.23c-.0141646.3828762.1916775.740187.53.92 3.84 2.03 7.94 3.28 16.47 3.28s12.63-1.25 16.47-3.28c.3383225-.179813.5441646-.5371238.53-.92l-1-28.23c1.1573483.2178053 2.3323366.3282743 3.51.33 3.5385343.0044164 7.005856-.9941722 10-2.88.3489556-.2476093.5017112-.6897967.38-1.1-4-13.78-9-19.17-9.23-19.39-.44-.53-9.44-4.53-11.66-4.53h-18c-2.28 0-11.23 4-11.72 4.53-.21.22-5.22 5.61-9.28 19.39-.10410337.412697.06442875.8460653.42 1.08zm1.76-1.27c.22-.74.44-1.44.67-2.13 3.20409894 1.6370038 6.807158 2.3305666 10.39 2 .21.8.39 1.48.52 2-3.9577002.7477414-8.05226386.0936013-11.58-1.85zm10.55-2.13c-3.1918653.2441186-6.38779748-.4179454-9.22-1.91 1.44874589-4.25827 3.43477482-8.3143392 5.91-12.07.82 4.15 2.25 9.92 3.31 14zm37.85-14c2.4789428 3.7606642 4.4651569 7.823833 5.91 12.09-2.8345862 1.4854014-6.0285903 2.147066-9.22 1.91 1.06-4.06 2.49-9.83 3.31-13.98zm-4.34 18c.13-.51.31-1.19.52-2 3.582842.3305666 7.1859011-.3629962 10.39-2 .23.69.45 1.39.67 2.13-3.5242253 1.953966-7.6236901 2.605349-11.58 1.84zm-16.24-15.6c6.9 0 9.12-5.43 9.76-7.79.69.17 1.4.39 2.1.62-.726421 5.39284223-5.4216822 9.3574412-10.86 9.17h-2c-5.4415865.1968929-10.1423493-3.77235162-10.86-9.17.7-.23 1.41-.45 2.1-.62.64 2.36 2.86 7.79 9.76 7.79zm-7.76-8h15.52c-.8343626 3.5885429-4.0769797 6.09572108-7.76 6-3.6842996.09963591-6.9291042-2.40923367-7.76-6zm-6 1.52c1.0408279 6.18883092 6.48689 10.6617722 12.76 10.48h2c6.2798665.1956833 11.7367426-4.28263 12.77-10.48 2.22.85 4.16 1.78 5.12 2.26-1.15 6.58-4.89 20.38-4.89 20.27-.05.23-.09-1.56.95 29.19-3.46 1.76-7.2 2.76-14.95 2.76s-11.49-1-15-2.76c1.05-31 1-28.95 1-29.17-.33-1.31-3.7-13.64-4.86-20.29.93-.48 2.86-1.41 5.09-2.26z" transform="translate(-1)"/></svg>