<svg height="512" viewBox="0 0 60 60" width="512" xmlns="http://www.w3.org/2000/svg"><g id="Page-1" fill="none" fill-rule="evenodd"><g id="029---Gardening-Gloves" fill="rgb(0,0,0)" fill-rule="nonzero"><path id="Shape" d="m56 21v-11c0-2.209139-1.790861-4-4-4-.7049599.00295516-1.3960071.19644839-2 .56v-2.56c0-2.209139-1.790861-4-4-4s-4 1.790861-4 4v1.55c-.6067073-.35600493-1.2965692-.54571697-2-.55-1.7611297.01062496-3.308101 1.17186849-3.81 2.86-.1681145.00515477-.3354388.02523369-.5.06l.93-2.38c.4055707-.97968441.4055707-2.08031559 0-3.06-.4378986-.98161115-1.2524276-1.74568256-2.26-2.12-.977879-.41455232-2.082121-.41455232-3.06 0-.9718518.42627418-1.7344768 1.22127478-2.12 2.21l-.57 1.45c-.4227275-.53366956-.9777926-.94738263-1.61-1.2-.9863007-.38962158-2.0869552-.37163703-3.06.05-.9718518.42627418-1.7344768 1.22127478-2.12 2.21l-1.3 3.31c-.8861402-1.11860303-2.3011115-1.68038152-3.7132096-1.47423581s-2.6074167 1.14898842-3.1367904 2.47423581l-7.35 18.61c-1.42 3.64-1.43 8.94-1.22 12.53-.86755339-.0625665-1.67607571.4427599-2 1.25l-2.96 7.45c-.40204859 1.0272284.10352721 2.1860261 1.13 2.59l6.51 2.56 3.72 1.46 3.72 1.46 3.78 1.47 2.79 1.09c.2314353.0953077.4797256.142925.73.14.8220895-.0008284 1.5599376-.504628 1.86-1.27l2.92-7.45c.1476257-.3576951.1825145-.7519385.1-1.13 2.0552967-.6851511 3.9430262-1.7959811 5.54-3.26.19.44.37.83.54 1.2-.8656389.2330279-1.4704762 1.013595-1.48 1.91v8c0 1.1045695.8954305 2 2 2h22c1.1045695 0 2-.8954305 2-2v-8c-.0018451-.4123081-.1310754-.8139697-.37-1.15 1.4794698-2.3568761 2.2980421-5.0681808 2.37-7.85v-16c0-2.209139-1.790861-4-4-4zm-33.52 37-1.86-.73 1.09-2.79c.1489922-.3360548.1015951-.7267609-.1234273-1.0174435-.2250225-.2906826-.5913867-.4344707-.9540544-.3744407s-.6631608.3141986-.7825183.6618842l-1.09 2.79-1.87-.73 1.11-2.81c.1738544-.5064337-.0820466-1.0599445-.5804771-1.2555651-.4984306-.1956206-1.0625031.0360727-1.2795229.5255651l-1.14 2.81-1.86-.73 1.1-2.8c.1738544-.5064337-.0820466-1.0599445-.5804771-1.2555651-.4984306-.1956206-1.0625031.0360727-1.2795229.5255651l-1.1 2.8-1.86-.74 1.09-2.79c.1738544-.5064337-.0820466-1.0599445-.58047713-1.2555651-.49843055-.1956206-1.06250308.0360727-1.27952287.5255651l-1.06 2.79-1.87-.73 1.1-2.79c.22166568-.3387748.21719697-.7777775-.011319-1.1119698-.22851596-.3341922-.63598627-.4976281-1.03209993-.4139741-.39611365.083654-.7027058.3978906-.77658107.7959439l-1.1 2.79-1.9-.69 2.92-7.45.91.36 19.57 7.64zm3.17-9.5-18.5-7.26c-.21-2.93-.41-8.84 1-12.49l7.3-18.62c.1935815-.50285944.5818789-.90633455 1.0769499-1.1190457.4950711-.21271115 1.0550277-.21666076 1.5530501-.0109543.4907874.20168731.8848222.5849757 1.1 1.07.2027854.4898422.2027854 1.0401578 0 1.53l-1.48 3.77c-.1738544.5064337.0820466 1.0599445.5804771 1.2555651.4984306.1956206 1.0625031-.0360727 1.2795229-.5255651l1.48-3.77 2.56-6.52c.2968629-.75001103 1.0152136-1.24827951 1.8216936-1.26357859.8064801-.01529908 1.5432116.45536622 1.8683064 1.19357859.2027854.48984221.2027854 1.04015779 0 1.53l-4 10.3c-.197185.5135854.0575069 1.0899933.57 1.29.1140861.0472572.2365182.0710635.36.07.4098038.0003967.7783727-.249279.93-.63l4-10.3 1.85-4.65c.2009601-.50386631.5979729-.90448839 1.1-1.11.4898422-.20278536 1.0401578-.20278536 1.53 0 .496203.18802677.8937306.57109882 1.1 1.06.2096003.48846456.2096003 1.04153544 0 1.53l-2.19 5.58-3.33 8.48c-.197185.5135854.0575069 1.0899933.57 1.29.1140861.0472572.2365182.0710635.36.07.4098038.0003967.7783727-.249279.93-.63l3.33-8.49c.1941199-.5094937.5878301-.917652 1.09-1.13 1.0052265-.45060858 2.1855748-.00350695 2.64 1 .2027854.4898422.2027854 1.0401578 0 1.53l-7.9 20.25c-.5145374 1.3490748.0611028 2.869796 1.34 3.54 1.141359.6163209 2.5565979.3680334 3.42-.6l5-5.56c.735251-.821426 1.9965552-.8929893 2.82-.16.3965654.3567761.6341722.8571903.66 1.39.0408792.5264252-.1280719 1.0476572-.47 1.45l-10.46 11.58-.27.3c-1.7938095 1.8748018-4.093697 3.1880306-6.62 3.78zm28.35 9.5v-3c0-.5522847-.4477153-1-1-1s-1 .4477153-1 1v3h-2v-3c0-.5522847-.4477153-1-1-1s-1 .4477153-1 1v3h-2v-3c0-.5522847-.4477153-1-1-1s-1 .4477153-1 1v3h-2v-3c0-.5522847-.4477153-1-1-1s-1 .4477153-1 1v3h-2v-3c0-.5522847-.4477153-1-1-1s-1 .4477153-1 1v3h-2v-8h22v8zm4-17c-.0753007 2.4942667-.8440425 4.9182273-2.22 7h-20.17c-.34-.7-.76-1.61-1.2-2.67l10-11.15c.7054818-.7953595 1.0653065-1.8388514 1-2.9-.056818-1.0596144-.5323447-2.0532304-1.3219201-2.7621604-.7895755-.70893-1.8284877-1.0750715-2.8880799-1.0178396-1.0600513.0594714-2.05297.5379431-2.76 1.33l-5 5.55c-.2522008.2842001-.668053.354895-1 .17-.3614342-.1894848-.5343897-.6113274-.41-1l7.97-20.23c.7395239-1.904763-.0754163-4.06068961-1.89-5 .2875403-.79535176 1.0442761-1.32386566 1.89-1.32 1.1045695 0 2 .8954305 2 2v11.06c0 .5522847.4477153 1 1 1s1-.4477153 1-1v-16.06c0-1.1045695.8954305-2 2-2s2 .8954305 2 2v15.11c0 .5522847.4477153 1 1 1s1-.4477153 1-1v-9.11c0-1.1045695.8954305-2 2-2s2 .8954305 2 2v11.56c-1.2301781.7102092-1.9914262 2.0195558-2 3.44v8.14c-4.4522877.6415487-7.8148097 4.3655417-8 8.86 0 .5522847.4477153 1 1 1s1-.4477153 1-1c0-.25.13-6.13 7.12-7 .5049651-.0610234.8836739-.4913743.88-1v-9c0-1.1045695.8954305-2 2-2s2 .8954305 2 2z"/><path id="Shape" d="m22.07 23.46c-.2478988-.097839-.5245967-.0926765-.7686732.0143417-.2440766.1070182-.4353373.3070375-.5313268.5556583l-5.84 14.89c-.0983792.246631-.0946309.5222628.0104184.7661274.1050494.2438647.3027739.4359375.5495816.5338726.1177876.0465537.2433466.0703081.37.07.4122928-.0012179.7815757-.2553481.93-.64l5.85-14.89c.097839-.2478988.0926765-.5245967-.0143417-.7686732-.1070182-.2440766-.3070375-.4353373-.5556583-.5313268z"/><path id="Shape" d="m14.52 22.7c-.265334-.0163994-.5262777.0735261-.7251761.2499078-.1988985.1763816-.3193798.4247009-.3348239.6900922-.4049239 4.6984914-1.1705136 9.3588937-2.29 13.94-.1327367.5325786.1886032 1.0726083.72 1.21.0826382.0152226.1673618.0152226.25 0 .4706972.0137136.8871845-.3028167 1-.76 1.1695832-4.6989031 1.9588015-9.4843752 2.36-14.31.0053577-.2652317-.0948944-.5217232-.2786913-.7130221-.183797-.1912988-.4360749-.3017263-.7013087-.3069779z"/><path id="Shape" d="m26.72 28.18c-2.9909984 3.8057472-5.6665389 7.8491577-8 12.09-.1287454.23204-.1599832.5057375-.0868345.7608202s.2446852.4706317.4768345.5991798c.1474224.0795752.3124742.1208382.48.12.3664539.0010002.7041028-.1985196.88-.52 2.2879703-4.1245844 4.8959702-8.0633328 7.8-11.78.2541834-.2718117.3364045-.6622878.2134132-1.0135198-.1229914-.3512319-.4308483-.6051139-.7990733-.658976-.368225-.053862-.7359011.1012065-.9543399.4024958z"/></g></g></svg>